<svg width="20" height="20" viewBox="0 0 20 20" fill="none" xmlns="http://www.w3.org/2000/svg">
<path d="M9.16663 5.83337L6.66663 10H9.99996L7.49996 14.1667" stroke="#374151" stroke-width="2" stroke-linecap="round" stroke-linejoin="round"/>
<path d="M12.38 5H13.3333C13.7753 5 14.1992 5.17559 14.5118 5.48816C14.8244 5.80072 15 6.22464 15 6.66667V13.3333C15 13.7754 14.8244 14.1993 14.5118 14.5118C14.1992 14.8244 13.7753 15 13.3333 15H10.8875" stroke="#374151" stroke-width="2" stroke-linecap="round" stroke-linejoin="round"/>
<path d="M18.3334 11.6667V8.33337" stroke="#374151" stroke-width="2" stroke-linecap="round" stroke-linejoin="round"/>
<path d="M4.28329 15H3.33329C2.89127 15 2.46734 14.8244 2.15478 14.5118C1.84222 14.1993 1.66663 13.7754 1.66663 13.3333V6.66667C1.66663 6.22464 1.84222 5.80072 2.15478 5.48816C2.46734 5.17559 2.89127 5 3.33329 5H5.77996" stroke="#374151" stroke-width="2" stroke-linecap="round" stroke-linejoin="round"/>
</svg>
