<svg width="17" height="16" viewBox="0 0 17 16" fill="none" xmlns="http://www.w3.org/2000/svg">
<g clip-path="url(#clip0_2_2189)">
<path d="M15.0184 6.66666C15.3229 8.16086 15.1059 9.71428 14.4037 11.0679C13.7014 12.4214 12.5564 13.4934 11.1595 14.1049C9.76253 14.7164 8.19819 14.8305 6.72731 14.4282C5.25642 14.026 3.9679 13.1316 3.07663 11.8943C2.18535 10.657 1.74519 9.15148 1.82955 7.62892C1.91391 6.10635 2.51769 4.65872 3.54021 3.52744C4.56272 2.39616 5.94216 1.64961 7.44849 1.4123C8.95481 1.17498 10.497 1.46123 11.8178 2.22333" stroke="#16A34A" stroke-width="2" stroke-linecap="round" stroke-linejoin="round"/>
<path d="M6.48438 7.33329L8.48438 9.33329L15.151 2.66663" stroke="#16A34A" stroke-width="2" stroke-linecap="round" stroke-linejoin="round"/>
</g>
<defs>
<clipPath id="clip0_2_2189">
<rect width="16" height="16" fill="white" transform="translate(0.484375)"/>
</clipPath>
</defs>
</svg>
