<svg width="20" height="20" viewBox="0 0 20 20" fill="none" xmlns="http://www.w3.org/2000/svg">
<path d="M9.16669 16.6666C7.70341 16.6711 6.2919 16.1254 5.21212 15.1378C4.13234 14.1502 3.46316 12.7929 3.3373 11.335C3.21144 9.87718 3.6381 8.42526 4.53265 7.26724C5.4272 6.10923 6.7243 5.32971 8.16669 5.08329C12.9167 4.16663 14.1667 3.73329 15.8334 1.66663C16.6667 3.33329 17.5 5.14996 17.5 8.33329C17.5 12.9166 13.5167 16.6666 9.16669 16.6666Z" stroke="#9333EA" stroke-width="2" stroke-linecap="round" stroke-linejoin="round"/>
<path d="M1.66675 17.5C1.66675 15 3.20841 13.0333 5.90008 12.5C7.91675 12.1 10.0001 10.8333 10.8334 10" stroke="#9333EA" stroke-width="2" stroke-linecap="round" stroke-linejoin="round"/>
</svg>
